<?xml version="1.0" standalone="no"?>
<!DOCTYPE svg PUBLIC "-//W3C//DTD SVG 20010904//EN"
 "http://www.w3.org/TR/2001/REC-SVG-20010904/DTD/svg10.dtd">
<svg version="1.0" xmlns="http://www.w3.org/2000/svg"
 width="526.000000pt" height="168.000000pt" viewBox="0 0 526.000000 168.000000"
 preserveAspectRatio="xMidYMid meet">

<g transform="translate(0.000000,168.000000) scale(0.100000,-0.100000)"
fill="#000000" stroke="none">
<path d="M2647 1330 c-66 -12 -118 -40 -144 -80 -18 -26 -23 -47 -23 -99 0
-107 35 -146 174 -191 38 -12 78 -32 89 -43 l20 -20 -24 -20 c-20 -16 -34 -18
-85 -14 -34 3 -87 15 -118 25 l-56 19 0 -78 0 -77 35 -12 c54 -18 180 -27 252
-18 148 17 220 116 183 248 -16 59 -66 98 -166 129 -91 29 -119 50 -96 73 18
18 146 14 200 -5 l42 -16 0 79 0 78 -47 10 c-75 16 -183 22 -236 12z"/>
<path d="M0 1255 l0 -75 85 0 85 0 0 -230 0 -230 95 0 95 0 0 230 0 230 85 0
85 0 0 75 0 75 -265 0 -265 0 0 -75z"/>
<path d="M580 1026 l0 -306 100 0 100 0 0 230 0 230 55 0 c46 0 60 -4 80 -25
28 -27 30 -42 14 -79 -12 -26 -45 -43 -91 -48 l-27 -3 81 -152 81 -153 166 0
167 0 74 176 c41 97 78 178 81 180 4 2 21 -30 38 -72 17 -41 52 -122 77 -179
l46 -105 74 0 74 0 0 78 c0 77 0 78 -102 304 l-103 227 -101 1 -101 0 -114
-250 c-112 -245 -114 -249 -131 -227 -9 12 -27 43 -39 70 l-22 47 20 23 c86
93 56 248 -60 310 -39 20 -58 22 -239 25 l-198 4 0 -306z"/>
<path d="M1830 1025 l0 -305 95 0 95 0 0 135 c0 74 4 135 8 135 5 0 51 -61
103 -135 l94 -134 83 -1 82 0 0 305 0 305 -95 0 -95 0 0 -135 c0 -74 -4 -135
-8 -135 -4 0 -50 61 -102 135 l-95 134 -82 1 -83 0 0 -305z"/>
<path d="M3010 1025 l0 -305 100 0 100 0 0 305 0 305 -100 0 -100 0 0 -305z"/>
<path d="M3373 1105 l-103 -224 0 -80 0 -81 74 0 73 0 49 111 c26 61 52 113
56 115 4 3 8 -47 8 -110 l0 -116 80 0 80 0 58 118 57 117 3 -117 3 -118 99 0
100 0 0 305 0 305 -99 0 -99 0 -68 -137 -69 -138 -3 138 -3 137 -97 0 -97 -1
-102 -224z"/>
<path d="M4090 1025 l0 -305 215 0 215 0 0 75 0 75 -121 0 -120 0 3 38 3 37
93 3 92 3 0 74 0 75 -95 0 -95 0 0 40 0 40 120 0 120 0 0 75 0 75 -215 0 -215
0 0 -305z"/>
<path d="M4550 1327 c0 -2 49 -68 109 -147 91 -120 108 -146 98 -160 -7 -8
-60 -80 -120 -158 l-108 -142 126 0 125 0 57 85 56 85 56 -85 56 -85 127 0
127 0 -96 128 c-53 70 -107 141 -120 158 l-23 31 91 119 c50 65 100 131 111
147 l19 27 -125 0 -125 0 -49 -76 -49 -76 -47 76 -47 76 -125 0 c-68 0 -124
-1 -124 -3z"/>
</g>
</svg>
